<svg width="120" height="120" viewBox="0 0 120 120" fill="none" xmlns="http://www.w3.org/2000/svg">
<path d="M43.7564 59.8027C48.9682 58.7793 53.6938 56.0558 57.192 52.0588C60.6902 48.0619 62.7634 43.0177 63.0874 37.7161L56.8277 37.3335C56.5882 41.2497 55.0565 44.9758 52.4726 47.9282C49.8883 50.8804 46.398 52.8921 42.548 53.6481L43.7564 59.8027Z" fill="#FF6957"/>
<path d="M32.16 26.8802C34.0157 26.8802 35.52 25.3758 35.52 23.5202C35.52 21.6645 34.0157 20.1602 32.16 20.1602C30.3044 20.1602 28.8 21.6645 28.8 23.5202C28.8 25.3758 30.3044 26.8802 32.16 26.8802Z" fill="#C8CDD3"/>
<path d="M84 103.2C85.8557 103.2 87.36 101.696 87.36 99.84C87.36 97.9843 85.8557 96.48 84 96.48C82.1443 96.48 80.64 97.9843 80.64 99.84C80.64 101.696 82.1443 103.2 84 103.2Z" fill="#926D4F"/>
<path d="M67.2 63.3601C69.0556 63.3601 70.56 61.8558 70.56 60.0001C70.56 58.1445 69.0556 56.6401 67.2 56.6401C65.3443 56.6401 63.84 58.1445 63.84 60.0001C63.84 61.8558 65.3443 63.3601 67.2 63.3601Z" fill="#90E9A4"/>
<path fill-rule="evenodd" clip-rule="evenodd" d="M5.76001 88.3202L18.48 105.36L22.0193 103.729L27.9033 117.159L38.455 112.536L32.4837 98.907L70.56 81.3602L42.72 44.1602L5.76001 88.3202Z" fill="#242424"/>
<path d="M103.126 64.3713C98.2507 62.2632 92.8137 61.8317 87.6671 63.1449C82.5206 64.4577 77.9548 67.4409 74.6855 71.627L79.6281 75.4877C82.0435 72.3955 85.4159 70.1918 89.2175 69.2217C93.0191 68.2521 97.0353 68.5709 100.637 70.128L103.126 64.3713Z" fill="#C8CDD3"/>
<path d="M103.126 64.3713C98.2507 62.2632 92.8137 61.8317 87.6671 63.1449C82.5206 64.4577 77.9548 67.4409 74.6855 71.627L79.6281 75.4877C82.0435 72.3955 85.4159 70.1918 89.2175 69.2217C93.0191 68.2521 97.0353 68.5709 100.637 70.128L103.126 64.3713Z" fill="#C697F6"/>
<path d="M89.28 83.7598C93.0835 81.9963 94.7544 80.6139 95.04 75.8398C97.4232 80.1032 99.3279 81.2773 103.44 81.8398C98.6405 83.4622 97.6335 85.3534 97.2 89.5198C95.1725 85.4504 93.3077 84.4122 89.28 83.7598Z" fill="#C8CDD3"/>
<path d="M62.4 14.1602C66.2035 12.397 67.8744 11.0142 68.16 6.24023C70.5432 10.5036 72.4479 11.6775 76.56 12.2402C71.7605 13.8624 70.7535 15.7536 70.32 19.9202C68.2925 15.8508 66.4277 14.8123 62.4 14.1602Z" fill="#3561D6"/>
<path d="M88.3116 43.7572L83.2301 39.3599L76.32 47.3451L81.4016 51.7425L88.3116 43.7572Z" fill="#C8CDD3"/>
<path d="M11.1169 58.5621L14.4192 52.7095L5.22216 47.5202L1.91991 53.3729L11.1169 58.5621Z" fill="#FF689B"/>
</svg>
