<svg width="290" height="408" viewBox="0 0 290 408" fill="none" xmlns="http://www.w3.org/2000/svg">
<g filter="url(#filter0_d_162_4941)">
<path d="M4 12C4 5.37257 9.37258 0 16 0H256C272.569 0 286 13.4315 286 30V370C286 386.569 272.569 400 256 400H16C9.37258 400 4 394.627 4 388V12Z" fill="#90E9A4"/>
<mask id="path-2-inside-1_162_4941" fill="white">
<path d="M4 0H36V400H4V0Z"/>
</mask>
<path d="M32 0V400H40V0H32Z" fill="#67B679" mask="url(#path-2-inside-1_162_4941)"/>
<rect x="80" y="88" width="148" height="198" rx="8" fill="white"/>
<path d="M171.779 301.133C169.353 301.133 167.629 299.385 167.629 297.051C167.629 294.722 169.367 292.969 171.682 292.969C173.947 292.969 175.651 294.653 175.656 296.895C175.651 298.237 175.041 299.17 173.918 299.17C173.254 299.17 172.775 298.843 172.639 298.32H172.609C172.37 298.794 171.965 299.038 171.418 299.033C170.393 299.038 169.665 298.169 169.67 297.041C169.665 295.913 170.402 295.063 171.418 295.059C171.94 295.063 172.331 295.283 172.58 295.713H172.609V295.156H173.43V297.529C173.43 298.135 173.557 298.369 173.918 298.369C174.436 298.369 174.782 297.866 174.787 296.924C174.782 295.088 173.459 293.77 171.682 293.77C169.851 293.77 168.498 295.156 168.498 297.051C168.498 298.95 169.841 300.332 171.779 300.332C172.165 300.332 172.609 300.288 173.039 300.195V301.016C172.614 301.099 172.155 301.133 171.779 301.133ZM171.574 298.262C172.194 298.271 172.639 297.769 172.639 297.041C172.639 296.333 172.194 295.83 171.574 295.82C170.939 295.83 170.5 296.343 170.5 297.041C170.5 297.759 170.939 298.271 171.574 298.262ZM176.721 300V294.961H177.727V295.693H177.766C178.005 295.156 178.513 294.824 179.182 294.824C179.895 294.824 180.402 295.2 180.646 295.859H180.686C180.896 295.225 181.457 294.824 182.219 294.824C183.303 294.824 183.913 295.63 183.918 296.943V300H182.902V297.1C182.902 296.24 182.561 295.767 181.965 295.771C181.369 295.767 180.822 296.24 180.822 297.285V300H179.816V297.1C179.812 296.24 179.47 295.767 178.869 295.771C178.273 295.767 177.727 296.24 177.727 297.285V300H176.721ZM187.561 300.137C186.066 300.137 184.943 298.994 184.943 297.48C184.943 295.967 186.066 294.824 187.561 294.824C189.045 294.824 190.168 295.967 190.168 297.48C190.168 298.994 189.045 300.137 187.561 300.137ZM187.561 299.189C188.498 299.194 189.162 298.486 189.162 297.48C189.162 296.475 188.498 295.767 187.561 295.771C186.613 295.767 185.949 296.475 185.949 297.48C185.949 298.486 186.613 299.194 187.561 299.189ZM191.193 300V294.961H192.199V295.693H192.238C192.478 295.156 192.985 294.824 193.654 294.824C194.367 294.824 194.875 295.2 195.119 295.859H195.158C195.368 295.225 195.93 294.824 196.691 294.824C197.775 294.824 198.386 295.63 198.391 296.943V300H197.375V297.1C197.375 296.24 197.033 295.767 196.438 295.771C195.842 295.767 195.295 296.24 195.295 297.285V300H194.289V297.1C194.284 296.24 193.942 295.767 193.342 295.771C192.746 295.767 192.199 296.24 192.199 297.285V300H191.193ZM202.082 300.137C200.529 300.137 199.416 298.999 199.416 297.48C199.416 295.952 200.515 294.824 201.984 294.824C203.454 294.824 204.475 295.952 204.475 297.48C204.475 297.593 204.47 297.71 204.455 297.822H200.451C200.573 298.682 201.223 299.238 202.092 299.238C202.731 299.238 203.186 298.94 203.42 298.447L204.309 298.809C203.908 299.619 203.132 300.137 202.082 300.137ZM200.49 296.934H203.41C203.342 296.25 202.78 295.723 201.984 295.723C201.228 295.723 200.661 296.196 200.49 296.934ZM205.51 300V294.961H206.516V295.693H206.555C206.809 295.156 207.36 294.824 208.078 294.824C209.201 294.824 209.836 295.63 209.836 296.943V300H208.83V297.1C208.825 296.24 208.449 295.767 207.785 295.771C207.121 295.767 206.516 296.24 206.516 297.285V300H205.51ZM210.568 295.781V294.961H211.418V293.711H212.434V294.961H213.654V295.781H212.434V298.398C212.429 298.926 212.648 299.165 213.146 299.16C213.298 299.165 213.474 299.136 213.654 299.082V300.02C213.474 300.088 213.239 300.137 212.971 300.137C211.999 300.137 211.418 299.502 211.418 298.447V295.781H210.568ZM214.699 300V294.961H215.705V300H214.699ZM215.207 294.014C214.836 294.009 214.562 293.74 214.572 293.379C214.562 293.013 214.836 292.739 215.207 292.744C215.568 292.739 215.842 293.013 215.852 293.379C215.842 293.74 215.568 294.009 215.207 294.014ZM219.367 300.137C217.863 300.137 216.73 298.994 216.73 297.48C216.73 295.967 217.863 294.824 219.367 294.824C220.339 294.824 221.13 295.303 221.555 296.084L220.656 296.504C220.412 296.035 219.958 295.767 219.367 295.771C218.405 295.767 217.736 296.475 217.736 297.48C217.736 298.486 218.405 299.194 219.367 299.189C219.958 299.194 220.412 298.926 220.656 298.457L221.555 298.877C221.13 299.658 220.339 300.137 219.367 300.137ZM224.885 299.189C225.764 299.194 226.394 298.486 226.398 297.48C226.394 296.475 225.764 295.767 224.885 295.771C223.986 295.767 223.361 296.479 223.371 297.48C223.361 298.481 223.986 299.194 224.885 299.189ZM227.365 300H226.359V299.238H226.32C225.988 299.829 225.446 300.137 224.729 300.137C223.332 300.137 222.336 298.994 222.346 297.48C222.336 295.967 223.332 294.824 224.729 294.824C225.441 294.824 225.983 295.127 226.32 295.713H226.359V294.961H227.365V300Z" fill="white"/>
</g>
<defs>
<filter id="filter0_d_162_4941" x="0" y="0" width="290" height="408" filterUnits="userSpaceOnUse" color-interpolation-filters="sRGB">
<feFlood flood-opacity="0" result="BackgroundImageFix"/>
<feColorMatrix in="SourceAlpha" type="matrix" values="0 0 0 0 0 0 0 0 0 0 0 0 0 0 0 0 0 0 127 0" result="hardAlpha"/>
<feOffset dy="4"/>
<feGaussianBlur stdDeviation="2"/>
<feComposite in2="hardAlpha" operator="out"/>
<feColorMatrix type="matrix" values="0 0 0 0 0 0 0 0 0 0 0 0 0 0 0 0 0 0 0.25 0"/>
<feBlend mode="normal" in2="BackgroundImageFix" result="effect1_dropShadow_162_4941"/>
<feBlend mode="normal" in="SourceGraphic" in2="effect1_dropShadow_162_4941" result="shape"/>
</filter>
</defs>
</svg>
