<svg width="80" height="80" viewBox="0 0 80 80" fill="none" xmlns="http://www.w3.org/2000/svg">
<g clip-path="url(#clip0_388_4503)">
<path fill-rule="evenodd" clip-rule="evenodd" d="M35.6568 69.6095C35.5613 69.5906 35.4536 69.5681 35.3356 69.5414C32.7353 69.4128 28.7693 68.7122 25.261 65.2786C21.4343 61.5333 19.047 57.1272 17.446 52.8922C14.8573 46.0448 13.3539 36.8544 18.0104 28.1084C20.8481 22.7783 25.1527 19.3499 28.6508 16.9327C32.0326 14.596 37.4207 11.0512 43.9106 10.182C46.9207 9.77887 52.2438 9.64387 56.6125 14.2658C59.6195 17.447 61.3435 21.1243 62.4524 24.1802C65.1701 31.6686 65.3268 39.4866 65.051 45.9228C64.8278 51.1299 62.9778 57.8956 59.0195 62.7728C58.9747 62.828 58.9228 62.8926 58.8642 62.9656C58.29 63.681 57.073 65.1976 55.5893 66.46C53.8051 67.978 50.8667 69.8264 46.8551 69.8799C47.2142 69.8751 43.6853 69.991 41.7355 69.9992C40.5312 70.0043 39.1268 69.9872 37.8841 69.8956C37.2877 69.8517 36.4819 69.774 35.6568 69.6095Z" fill="#FF6957"/>
<path fill-rule="evenodd" clip-rule="evenodd" d="M36.3255 64.8878C36.2491 64.8726 36.163 64.8546 36.0686 64.8334C33.9883 64.7304 30.8155 64.1699 28.0089 61.4231C24.9475 58.4268 23.0377 54.9019 21.7568 51.514C19.6859 46.036 18.4832 38.6837 22.2084 31.6868C24.4785 27.4229 27.9223 24.68 30.7208 22.7464C33.4262 20.877 37.7366 18.0412 42.9286 17.3458C45.3367 17.0233 49.5951 16.9153 53.0901 20.6129C55.4956 23.1578 56.8749 26.0996 57.7621 28.5443C59.9361 34.535 60.0615 40.7894 59.8408 45.9385C59.6624 50.1041 58.1823 55.5167 55.0156 59.4185C54.9964 59.4421 54.9757 59.4678 54.9533 59.4956C54.9339 59.5199 54.9133 59.5456 54.8914 59.5727C54.4321 60.1451 53.4585 61.3583 52.2715 62.3682C50.8442 63.5826 48.4934 65.0614 45.2841 65.1041C45.5715 65.1002 42.7483 65.193 41.1884 65.1996C40.225 65.2036 39.1016 65.1899 38.1074 65.1167C37.6301 65.0815 36.9856 65.0195 36.3255 64.8878Z" fill="#FFECAE"/>
<path d="M44.6987 39.8681L46.8124 38.1401" stroke="#86514D" stroke-width="1.44" stroke-linecap="round"/>
<path d="M35.9059 39.8681L33.7922 38.1401" stroke="#86514D" stroke-width="1.44" stroke-linecap="round"/>
<path d="M37.6875 44.7056C37.6875 44.7537 37.7587 44.6326 37.8023 44.6024C38.0272 44.4466 38.2585 44.2905 38.5136 44.1894C38.8017 44.0751 39.0789 43.8702 39.3941 43.8308C39.8019 43.7798 40.3145 43.6765 40.685 43.9111C41.102 44.1752 41.5737 44.513 41.9212 44.8605" stroke="#86514D" stroke-width="1.44" stroke-linecap="round"/>
<g filter="url(#filter0_f_388_4503)">
<path d="M40.0246 39.8684C41.3154 39.8684 42.3617 39.694 42.3617 39.4789C42.3617 39.2637 41.3154 39.0894 40.0246 39.0894C38.7339 39.0894 37.6875 39.2637 37.6875 39.4789C37.6875 39.694 38.7339 39.8684 40.0246 39.8684Z" fill="#FF0000" fill-opacity="0.4"/>
</g>
</g>
<defs>
<filter id="filter0_f_388_4503" x="36.1294" y="37.5313" width="7.79046" height="3.89495" filterUnits="userSpaceOnUse" color-interpolation-filters="sRGB">
<feFlood flood-opacity="0" result="BackgroundImageFix"/>
<feBlend mode="normal" in="SourceGraphic" in2="BackgroundImageFix" result="shape"/>
<feGaussianBlur stdDeviation="0.779036" result="effect1_foregroundBlur_388_4503"/>
</filter>
<clipPath id="clip0_388_4503">
<rect width="50.4" height="60" fill="white" transform="translate(15 10)"/>
</clipPath>
</defs>
</svg>
