<svg width="80" height="80" viewBox="0 0 80 80" fill="none" xmlns="http://www.w3.org/2000/svg">
<g clip-path="url(#clip0_388_4400)">
<path fill-rule="evenodd" clip-rule="evenodd" d="M35.6567 69.6095C35.5613 69.5906 35.4536 69.5681 35.3356 69.5414C32.7353 69.4127 28.7693 68.7122 25.261 65.2786C21.4343 61.5333 19.047 57.1272 17.446 52.8922C14.8573 46.0448 13.3539 36.8544 18.0104 28.1084C20.8481 22.7783 25.1527 19.3499 28.6508 16.9327C32.0326 14.596 37.4207 11.0512 43.9106 10.182C46.9207 9.77887 52.2438 9.64387 56.6125 14.2658C59.6195 17.447 61.3435 21.1243 62.4524 24.1802C65.1701 31.6686 65.3268 39.4866 65.051 45.9228C64.8278 51.1299 62.9778 57.8956 59.0195 62.7728C58.9747 62.828 58.9228 62.8926 58.8642 62.9656C58.29 63.681 57.073 65.1976 55.5893 66.46C53.8051 67.978 50.8667 69.8264 46.8551 69.8799C47.2142 69.8751 43.6853 69.991 41.7355 69.9992C40.5312 70.0043 39.1268 69.9872 37.8841 69.8956C37.2877 69.8517 36.4819 69.774 35.6567 69.6095Z" fill="#E3C8FF"/>
<path d="M31.5288 36.0746C32 36.0746 32.6048 34.6024 32.7344 34.2691C32.8286 34.0268 33.1507 33.7262 33.4393 33.6942C33.6973 33.6655 33.9717 33.6913 34.2309 33.6913C34.5417 33.6913 34.7562 33.7817 35.0514 33.8473C35.1883 33.8777 35.3988 33.9906 35.4789 34.1072C35.6192 34.3112 36.1425 34.3134 36.3543 34.3412C36.8976 34.4128 37.146 34.7513 37.6103 35.1161C38.1042 35.5042 38.1593 36.1135 37.8637 36.6365C37.5301 37.2266 37.3961 37.415 37.2614 38.0882C37.1442 38.6746 37.0845 39.0992 36.3543 39.4238C35.8225 39.6601 35.6234 40.187 35.0918 39.9834C34.8992 39.9097 34.7059 39.7633 34.5025 39.7264C34.2389 39.6784 33.9079 39.7205 33.6474 39.7639C32.9953 39.8725 32.5044 40.0444 31.8793 39.7235C31.3556 39.4546 31.2966 39.1339 31.3073 38.5794C31.3109 38.3964 31.4341 38.192 31.2785 38.0363C31.1231 37.881 30.8671 37.8121 30.7353 37.6318C30.4904 37.2968 30.5833 36.4844 30.9722 36.2798C31.2318 36.1432 31.6365 35.2217 31.8845 35.0839C32.0605 34.9861 32.2434 34.6093 32.3525 34.4455C32.5277 34.1827 32.6619 34.8606 32.9713 34.7833" stroke="white" stroke-width="1.36835" stroke-linecap="round"/>
<path d="M32.6594 38.7352C32.6311 38.4239 32.4382 38.1133 32.3733 37.8021C32.3326 37.6068 32.3533 37.4166 32.2694 37.23C32.2066 37.0907 32.0874 36.9396 32.0874 36.7822C32.0874 36.1632 32.8641 35.4863 33.3064 35.1586C33.7297 34.8451 34.2486 34.6468 34.7625 34.5461C35.1073 34.4787 35.0258 34.7657 34.93 35.0373C34.6783 35.7514 34.1026 36.4161 33.6184 36.9845C33.4236 37.2132 33.1338 37.5073 32.8154 37.5363C32.587 37.557 32.2202 37.6097 32.0642 37.4092C31.9646 37.281 31.9894 37.0105 31.9833 36.8515C31.9689 36.4781 31.6058 36.9085 31.5385 37.0075C31.4686 37.1103 31.6351 36.8543 31.6598 36.8314C32.0624 36.4565 32.5726 36.1474 33.0378 35.8577C33.2161 35.7468 33.9074 35.2234 33.9074 35.722C33.9074 36.441 33.3894 37.0295 32.9714 37.5796C32.8072 37.7956 33.1675 37.0647 33.3354 36.8515C33.6004 36.5151 33.8715 36.0927 34.2714 35.8981C34.3676 35.8513 34.6719 35.829 34.6845 35.9617C34.769 36.8491 33.9214 37.7219 33.5492 38.4665C33.4798 38.6051 33.7287 37.9761 33.7658 37.9119C34.0804 37.3679 34.4361 36.7905 34.8637 36.3258C35.0245 36.1509 35.0692 36.1963 34.9128 36.3778C34.6126 36.7258 34.3024 37.0633 34.0201 37.4265C33.948 37.5191 33.4891 38.046 33.8438 38.0591C34.0881 38.0682 34.2735 38.1461 34.491 38.2267C34.7918 38.3381 34.9801 38.5084 35.2855 38.5763C35.5797 38.6417 35.8868 38.9274 36.1954 38.8912C36.3003 38.8788 36.3394 37.2468 36.3486 37.0278C36.3705 36.5002 36.5674 36.1547 36.9783 35.826C37.051 35.7678 37.6696 35.4996 37.4204 35.7421C37.0557 36.0971 36.6001 36.3831 36.207 36.7071C35.8683 36.9863 35.5552 37.3141 35.2075 37.5796C35.1202 37.6462 34.7959 37.7964 34.7163 37.6373C34.5938 37.3925 34.7023 36.9445 34.8087 36.7216C35.057 36.2019 35.417 35.5379 35.8545 35.1528C36.3199 34.7434 37.0275 35.4139 37.0275 35.9271C37.0275 36.0719 37.0389 36.2088 36.9754 36.3431C36.957 36.3823 36.7995 36.6082 36.8311 36.6436C36.8484 36.6631 37.4242 36.741 37.0795 36.6031" stroke="white" stroke-width="1.36835" stroke-linecap="round"/>
<path d="M33.3606 36.657C33.3606 36.5706 33.4657 36.5144 33.5023 36.4364C33.5605 36.3128 33.5739 36.2613 33.6901 36.1991C33.7975 36.1416 33.9287 36.1299 34.0509 36.1299C34.2005 36.1299 34.2672 36.1514 34.3971 36.2216C34.6537 36.3605 35.0677 36.2706 35.2646 36.5076C35.3881 36.6563 35.309 36.9711 35.2417 37.1199C35.1667 37.2855 35.0391 37.4835 34.8622 37.571C34.7209 37.6407 34.5606 37.5963 34.4117 37.571C34.233 37.5406 34.0782 37.5874 33.9049 37.6325C33.6306 37.7038 33.3653 37.5538 33.3084 37.2936C33.2715 37.1244 33.4069 37.0173 33.5483 36.9304C33.6788 36.8502 33.831 36.834 33.9841 36.8328C34.1315 36.8316 34.3641 36.7918 34.5034 36.8426C34.543 36.857 34.5505 36.8934 34.542 36.9294C34.5239 37.0058 34.3446 36.9687 34.297 36.9598C34.2642 36.9537 34.1336 36.8732 34.2083 36.8426C34.2865 36.8105 34.4012 36.8313 34.4867 36.8152" stroke="#4F3651" stroke-width="1.36835" stroke-linecap="round"/>
<path d="M33.3027 39.1704C33.3329 39.1704 34.1313 39.1704 34.3163 39.1704" stroke="white" stroke-width="1.36835" stroke-linecap="round"/>
<path d="M49.6408 33.9786C49.298 34.302 47.8478 33.6461 47.5248 33.4926M47.5248 33.4926C47.29 33.3811 46.8495 33.3834 46.6176 33.5581C46.4102 33.7143 46.2283 33.9213 46.0398 34.0992C45.8137 34.3125 45.7197 34.5254 45.55 34.7757C45.4713 34.8918 45.3957 35.1183 45.4174 35.2583C45.4554 35.5028 45.0762 35.8635 44.9413 36.0291C44.5952 36.4539 44.6058 36.9223 44.5183 37.5063C44.4254 38.1276 45.2115 38.8491 45.7854 39.0266C46.433 39.227 46.2927 38.9798 46.8526 39.3771C47.3403 39.7232 47.8557 40.0519 48.6096 39.7868C49.1586 39.5939 49.4844 39.7797 49.7313 39.2669C49.8208 39.0811 49.861 38.8419 49.9836 38.6754C50.1424 38.4596 50.4121 38.2632 50.6314 38.1159C51.1803 37.7475 51.6553 37.5356 51.8898 36.8732C52.0861 36.3183 51.9091 36.0446 51.5208 35.6486C51.3926 35.5178 51.1627 35.4539 51.169 35.2337C51.1754 35.0141 51.3145 34.7883 51.2865 34.5668C51.2348 34.1551 50.6097 33.6279 50.1865 33.7459C49.9039 33.8246 49.3754 33.8697 49.3881 34.07C49.0795 33.1986 48.5137 33.8406 48.3219 33.7964C48.0141 33.7255 47.8029 33.3366 47.5248 33.4926Z" stroke="white" stroke-width="1.36835" stroke-linecap="round"/>
<path d="M50.6442 36.6899C50.4512 36.444 50.3784 36.0858 50.2119 35.8149C50.1075 35.6451 49.962 35.5209 49.895 35.3274C49.8451 35.1831 49.8282 34.9913 49.7202 34.8768C49.2954 34.4266 48.2659 34.4673 47.7192 34.5324C47.1962 34.5948 46.6827 34.8066 46.2398 35.0861C45.9427 35.2736 46.1989 35.4266 46.455 35.5583C47.1282 35.905 48.003 35.9934 48.7452 36.0747C49.044 36.1073 49.4565 36.1223 49.7081 35.9249C49.8883 35.7833 50.1913 35.57 50.1672 35.317C50.1517 35.1555 49.9481 34.9757 49.8434 34.856C49.5975 34.5744 50.1571 34.6383 50.2741 34.6641C50.3953 34.6908 50.0987 34.619 50.0648 34.6192C49.5149 34.6228 48.9315 34.7481 48.3944 34.8567C48.1886 34.8982 47.3265 34.9919 47.6687 35.3546C48.1621 35.8776 48.9428 35.9502 49.6243 36.0635C49.8919 36.1079 49.1283 35.8235 48.8599 35.7837C48.4362 35.7209 47.9492 35.5997 47.5249 35.7326C47.4228 35.7646 47.186 35.9571 47.268 36.0623C47.8154 36.7658 49.0309 36.819 49.8126 37.1051C49.9581 37.1584 49.3455 36.8716 49.2744 36.8504C48.6723 36.6706 48.0173 36.4947 47.3875 36.45C47.1505 36.4332 47.1492 36.4968 47.3874 36.5216C47.8446 36.5688 48.3018 36.6015 48.7563 36.6718C48.8724 36.6897 49.5678 36.7581 49.3188 37.011C49.1473 37.1853 49.0659 37.3691 48.963 37.577C48.8207 37.8644 48.8005 38.1176 48.6251 38.3764C48.4559 38.626 48.4285 39.0446 48.1791 39.23C48.0944 39.293 46.946 38.1327 46.7891 37.9797C46.4111 37.6109 46.0307 37.4948 45.5063 37.5376C45.4135 37.5452 44.7794 37.7746 45.1273 37.78C45.6361 37.7878 46.1637 37.6833 46.6719 37.6492C47.1099 37.6199 47.5627 37.6436 47.9978 37.598C48.1069 37.5864 48.446 37.4732 48.3947 37.3029C48.3157 37.0408 47.9294 36.7893 47.699 36.7002C47.1619 36.4925 46.4443 36.2566 45.8618 36.2768C45.2424 36.2982 45.1878 37.2717 45.54 37.6449C45.6393 37.7502 45.725 37.8576 45.8633 37.9118C45.9036 37.9276 46.1731 37.9839 46.1744 38.0312C46.1753 38.0573 45.8099 38.5092 45.966 38.1723" stroke="white" stroke-width="1.36835" stroke-linecap="round"/>
<path d="M48.5534 35.8508C48.5011 35.7953 48.4039 35.8188 48.3348 35.7896C48.2251 35.7432 48.186 35.7178 48.0786 35.7438C47.9794 35.7678 47.8933 35.8346 47.82 35.9037C47.7302 35.9884 47.7031 36.0401 47.6677 36.1587C47.5976 36.393 47.2946 36.5699 47.3198 36.8334C47.3357 36.9988 47.5735 37.1558 47.704 37.213C47.8492 37.2767 48.0456 37.3314 48.2047 37.2873C48.3317 37.252 48.401 37.1328 48.4752 37.0322C48.564 36.9114 48.6853 36.8538 48.8167 36.7845C49.0246 36.6749 49.0931 36.4284 48.9698 36.2295C48.8897 36.1 48.7435 36.108 48.6061 36.1324C48.4792 36.155 48.378 36.2308 48.2854 36.3167C48.1962 36.3994 48.0325 36.5056 47.9795 36.6171C47.9645 36.6488 47.9819 36.6764 48.0089 36.6946C48.0659 36.7332 48.1511 36.608 48.1744 36.5752C48.1902 36.5528 48.22 36.4272 48.1567 36.4499C48.0904 36.4737 48.034 36.5519 47.973 36.5901" stroke="#4F3651" stroke-width="1.36835" stroke-linecap="round"/>
<path d="M50.4748 37.4478C50.4529 37.4685 49.8721 38.0164 49.7375 38.1434" stroke="white" stroke-width="1.36835" stroke-linecap="round"/>
<path d="M37.9204 43.1745C37.9204 43.5704 38.6059 43.652 38.9171 43.5719C39.3987 43.4481 39.5649 42.7796 40.0898 42.7641C40.5135 42.7516 40.6857 43.0239 40.9693 43.2917C41.1518 43.4642 41.6061 43.6464 41.8487 43.4904C42.1383 43.3043 42.3413 43.0181 42.6403 42.852C43 42.6521 43.1967 42.939 43.3438 43.2039C43.675 43.7999 44.6446 43.523 44.8389 42.94" stroke="#4F3651" stroke-width="1.44" stroke-linecap="round"/>
<g filter="url(#filter0_f_388_4400)">
<path d="M40.7359 37.6225C42.2909 37.6225 43.5515 37.1183 43.5515 36.4963C43.5515 35.8743 42.2909 35.3701 40.7359 35.3701C39.181 35.3701 37.9204 35.8743 37.9204 36.4963C37.9204 37.1183 39.181 37.6225 40.7359 37.6225Z" fill="#325BC4" fill-opacity="0.3"/>
</g>
</g>
<defs>
<filter id="filter0_f_388_4400" x="35.668" y="33.1177" width="10.1359" height="6.75728" filterUnits="userSpaceOnUse" color-interpolation-filters="sRGB">
<feFlood flood-opacity="0" result="BackgroundImageFix"/>
<feBlend mode="normal" in="SourceGraphic" in2="BackgroundImageFix" result="shape"/>
<feGaussianBlur stdDeviation="1.12621" result="effect1_foregroundBlur_388_4400"/>
</filter>
<clipPath id="clip0_388_4400">
<rect width="50.4" height="60" fill="white" transform="translate(15 10)"/>
</clipPath>
</defs>
</svg>
