<svg width="80" height="80" viewBox="0 0 80 80" fill="none" xmlns="http://www.w3.org/2000/svg">
<g clip-path="url(#clip0_388_4474)">
<path fill-rule="evenodd" clip-rule="evenodd" d="M35.6567 69.6095C35.5613 69.5906 35.4536 69.5681 35.3356 69.5414C32.7353 69.4127 28.7693 68.7122 25.261 65.2786C21.4343 61.5333 19.047 57.1272 17.446 52.8922C14.8573 46.0448 13.3539 36.8544 18.0104 28.1084C20.8481 22.7783 25.1527 19.3499 28.6508 16.9327C32.0326 14.596 37.4207 11.0512 43.9106 10.182C46.9207 9.77887 52.2438 9.64387 56.6125 14.2658C59.6195 17.447 61.3435 21.1243 62.4524 24.1802C65.1701 31.6686 65.3268 39.4866 65.051 45.9228C64.8278 51.1299 62.9778 57.8956 59.0195 62.7728C58.9747 62.828 58.9228 62.8926 58.8642 62.9656C58.29 63.681 57.073 65.1976 55.5893 66.46C53.8051 67.978 50.8667 69.8264 46.8551 69.8799C47.2142 69.8751 43.6853 69.991 41.7355 69.9992C40.5312 70.0043 39.1268 69.9872 37.8841 69.8956C37.2877 69.8517 36.4819 69.774 35.6567 69.6095Z" fill="#C59C7A"/>
<path d="M34.5255 37.5038C34.3107 37.4823 34.2 37.1186 34.2 36.9467C34.2 36.5462 34.7608 36.2182 35.0758 36.5138C35.189 36.6201 35.3197 36.9047 35.2453 37.0658C35.1823 37.2023 34.7664 37.5038 34.6419 37.5038" stroke="#3D3836" stroke-width="1.52669" stroke-linecap="round"/>
<path d="M46.5255 37.5038C46.3107 37.4823 46.2 37.1186 46.2 36.9467C46.2 36.5462 46.7608 36.2182 47.0758 36.5138C47.189 36.6201 47.3197 36.9047 47.2453 37.0658C47.1823 37.2023 46.7664 37.5038 46.6419 37.5038" stroke="#3D3836" stroke-width="1.52669" stroke-linecap="round"/>
<path d="M36 43.6001H45.6" stroke="#3D3836" stroke-width="1.24708" stroke-linecap="round"/>
</g>
<defs>
<clipPath id="clip0_388_4474">
<rect width="50.4" height="60" fill="white" transform="translate(15 10)"/>
</clipPath>
</defs>
</svg>
