<svg width="80" height="80" viewBox="0 0 80 80" fill="none" xmlns="http://www.w3.org/2000/svg">
<g clip-path="url(#clip0_388_4430)">
<path fill-rule="evenodd" clip-rule="evenodd" d="M35.6567 69.6095C35.5613 69.5906 35.4536 69.5681 35.3356 69.5414C32.7353 69.4127 28.7693 68.7122 25.261 65.2786C21.4343 61.5333 19.047 57.1272 17.446 52.8922C14.8573 46.0448 13.3539 36.8544 18.0104 28.1084C20.8481 22.7783 25.1527 19.3499 28.6508 16.9327C32.0326 14.596 37.4207 11.0512 43.9106 10.182C46.9207 9.77887 52.2438 9.64387 56.6125 14.2658C59.6195 17.447 61.3435 21.1243 62.4524 24.1802C65.1701 31.6686 65.3268 39.4866 65.051 45.9228C64.8278 51.1299 62.9778 57.8956 59.0195 62.7728C58.9747 62.828 58.9228 62.8926 58.8642 62.9656C58.29 63.681 57.073 65.1976 55.5893 66.46C53.8051 67.978 50.8667 69.8264 46.8551 69.8799C47.2142 69.8751 43.6853 69.991 41.7355 69.9992C40.5312 70.0043 39.1268 69.9872 37.8841 69.8956C37.2877 69.8517 36.4819 69.774 35.6567 69.6095Z" fill="#D2FFA5"/>
<g filter="url(#filter0_f_388_4430)">
<path d="M51.8925 43.7092C53.3879 43.7092 54.6002 42.3416 54.6002 40.6546C54.6002 38.9677 53.3879 37.6001 51.8925 37.6001C50.3971 37.6001 49.1848 38.9677 49.1848 40.6546C49.1848 42.3416 50.3971 43.7092 51.8925 43.7092Z" fill="#FFCBCF"/>
</g>
<g filter="url(#filter1_f_388_4430)">
<path d="M28.5077 43.7092C30.0032 43.7092 31.2154 42.3416 31.2154 40.6546C31.2154 38.9677 30.0032 37.6001 28.5077 37.6001C27.0123 37.6001 25.8 38.9677 25.8 40.6546C25.8 42.3416 27.0123 43.7092 28.5077 43.7092Z" fill="#FFCBCF"/>
</g>
<path d="M36.8398 43.6001C39.7212 45.0001 41.4944 45.0001 44.3758 43.6001" stroke="#52565B" stroke-width="1.44" stroke-linecap="round"/>
<path d="M32.3438 35.2002C32.9366 35.3599 32.8402 35.3509 33.0066 35.4144C33.5576 35.6246 34.0998 35.8556 34.5992 36.105C34.9028 36.2567 35.1309 36.441 35.3107 36.6468C35.3906 36.7382 35.4719 36.8436 35.4516 36.9485C35.4215 37.1038 35.1928 37.2469 34.9985 37.3442C34.4028 37.6426 33.7128 37.888 33.0134 38.0972C32.6859 38.1953 32.3549 38.2888 32.0316 38.3912C31.9505 38.4169 31.8905 38.4162 31.8 38.4162" stroke="#52565B" stroke-width="1.44" stroke-linecap="round"/>
<path d="M48.1657 35.2158C47.5729 35.3755 47.6693 35.3665 47.5028 35.43C46.9519 35.6403 46.4096 35.8713 45.9103 36.1206C45.6067 36.2723 45.3786 36.4566 45.1988 36.6624C45.1189 36.7539 45.0376 36.8592 45.0578 36.9641C45.088 37.1193 45.3167 37.2625 45.511 37.3597C46.1066 37.6582 46.7966 37.9036 47.4961 38.1129C47.8236 38.2109 48.1546 38.3044 48.4778 38.4069C48.559 38.4325 48.619 38.4318 48.7094 38.4318" stroke="#52565B" stroke-width="1.44" stroke-linecap="round"/>
</g>
<defs>
<filter id="filter0_f_388_4430" x="43.9528" y="32.3681" width="15.8793" height="16.5729" filterUnits="userSpaceOnUse" color-interpolation-filters="sRGB">
<feFlood flood-opacity="0" result="BackgroundImageFix"/>
<feBlend mode="normal" in="SourceGraphic" in2="BackgroundImageFix" result="shape"/>
<feGaussianBlur stdDeviation="2.616" result="effect1_foregroundBlur_388_4430"/>
</filter>
<filter id="filter1_f_388_4430" x="20.568" y="32.3681" width="15.8793" height="16.5729" filterUnits="userSpaceOnUse" color-interpolation-filters="sRGB">
<feFlood flood-opacity="0" result="BackgroundImageFix"/>
<feBlend mode="normal" in="SourceGraphic" in2="BackgroundImageFix" result="shape"/>
<feGaussianBlur stdDeviation="2.616" result="effect1_foregroundBlur_388_4430"/>
</filter>
<clipPath id="clip0_388_4430">
<rect width="50.4" height="60" fill="white" transform="translate(15 10)"/>
</clipPath>
</defs>
</svg>
