<svg width="80" height="80" viewBox="0 0 80 80" fill="none" xmlns="http://www.w3.org/2000/svg">
<g clip-path="url(#clip0_388_4415)">
<path fill-rule="evenodd" clip-rule="evenodd" d="M35.6567 69.6095C35.5613 69.5906 35.4536 69.5681 35.3356 69.5414C32.7353 69.4127 28.7693 68.7122 25.261 65.2786C21.4343 61.5333 19.047 57.1272 17.446 52.8922C14.8573 46.0448 13.3539 36.8544 18.0104 28.1084C20.8481 22.7783 25.1527 19.3499 28.6508 16.9327C32.0326 14.596 37.4207 11.0512 43.9106 10.182C46.9207 9.77887 52.2438 9.64387 56.6125 14.2658C59.6195 17.447 61.3435 21.1243 62.4524 24.1802C65.1701 31.6686 65.3268 39.4866 65.051 45.9228C64.8278 51.1299 62.9778 57.8956 59.0195 62.7728C58.9747 62.828 58.9228 62.8926 58.8642 62.9656C58.29 63.681 57.073 65.1976 55.5893 66.46C53.8051 67.978 50.8667 69.8264 46.8551 69.8799C47.2142 69.8751 43.6853 69.991 41.7355 69.9992C40.5312 70.0043 39.1268 69.9872 37.8841 69.8956C37.2877 69.8517 36.4819 69.774 35.6567 69.6095Z" fill="#BDEDFF"/>
<path d="M57.0001 58.9283C57.0001 63.7174 49.7471 67.5998 40.8001 67.5998C31.8531 67.5998 24.6001 63.7174 24.6001 58.9283C24.6001 54.1391 31.8531 58.9283 40.8001 58.9283C49.7471 58.9283 57.0001 54.1391 57.0001 58.9283Z" fill="#88DEFF"/>
<path d="M46.0588 35.4097L48.7497 37.0095" stroke="#52565B" stroke-width="1.44" stroke-linecap="round"/>
<path d="M35.727 35.2002L33.0361 36.8" stroke="#52565B" stroke-width="1.44" stroke-linecap="round"/>
<path d="M38.7205 40.0005C40.9679 39.0072 42.1952 39.0211 44.3429 40.0005" stroke="#52565B" stroke-width="1.44" stroke-linecap="round"/>
<path d="M49.8091 38.5418C49.9273 38.5418 50.6977 38.4566 50.7075 38.6235C50.7218 38.8664 50.7821 39.1952 50.4625 39.1952C50.2577 39.1952 49.9698 39.2469 49.7727 39.1906C49.6783 39.1636 49.9211 38.7125 50.0541 38.7051C50.3329 38.6896 51.5243 38.5638 51.5243 38.9909C51.5243 39.2428 51.458 39.4402 51.1567 39.4402C50.9881 39.4402 50.6195 39.5092 50.5442 39.3585" stroke="#88DEFF" stroke-width="2.11135" stroke-linecap="round"/>
<path d="M49.5275 38.4236C49.5275 38.3242 49.5351 38.3104 49.6343 38.2632C49.7648 38.2016 49.9821 38.2098 50.122 38.2098C50.179 38.2098 50.1196 38.236 50.0973 38.2415C50.0128 38.2626 49.9268 38.2784 49.848 38.3177C49.6828 38.4003 49.5742 38.5227 49.4741 38.6728" stroke="#E8F3FF" stroke-width="0.812058" stroke-linecap="round"/>
<path d="M32.3153 38.7801C32.1972 38.7801 31.4267 38.6948 31.4168 38.8617C31.4025 39.1047 31.3424 39.4335 31.6619 39.4335C31.8667 39.4335 32.1546 39.4852 32.3516 39.4289C32.4461 39.4019 32.2033 38.9509 32.0702 38.9434C31.7915 38.9279 30.6001 38.8021 30.6001 39.2293C30.6001 39.481 30.6663 39.6785 30.9677 39.6785C31.1363 39.6785 31.5049 39.7475 31.5803 39.5968" stroke="#88DEFF" stroke-width="2.11135" stroke-linecap="round"/>
<path d="M32.597 38.6619C32.597 38.5625 32.5896 38.5486 32.4902 38.5015C32.3598 38.4397 32.1425 38.4481 32.0025 38.4481C31.9455 38.4481 32.0049 38.4742 32.0273 38.4798C32.1117 38.5009 32.1978 38.5165 32.2765 38.556C32.4417 38.6386 32.5503 38.761 32.6504 38.9111" stroke="#E8F3FF" stroke-width="0.812058" stroke-linecap="round"/>
</g>
<defs>
<clipPath id="clip0_388_4415">
<rect width="50.4" height="60" fill="white" transform="translate(15 10)"/>
</clipPath>
</defs>
</svg>
