<svg width="80" height="80" viewBox="0 0 80 80" fill="none" xmlns="http://www.w3.org/2000/svg">
<g clip-path="url(#clip0_388_4489)">
<path fill-rule="evenodd" clip-rule="evenodd" d="M35.6567 69.6095C35.5613 69.5906 35.4536 69.5681 35.3356 69.5414C32.7353 69.4127 28.7693 68.7122 25.261 65.2786C21.4343 61.5333 19.047 57.1272 17.446 52.8922C14.8573 46.0448 13.3539 36.8544 18.0104 28.1084C20.8481 22.7783 25.1527 19.3499 28.6508 16.9327C32.0326 14.596 37.4207 11.0512 43.9106 10.182C46.9207 9.77887 52.2438 9.64387 56.6125 14.2658C59.6195 17.447 61.3435 21.1243 62.4524 24.1802C65.1701 31.6686 65.3268 39.4866 65.051 45.9228C64.8278 51.1299 62.9778 57.8956 59.0195 62.7728C58.9747 62.828 58.9228 62.8926 58.8642 62.9656C58.29 63.681 57.073 65.1976 55.5893 66.46C53.8051 67.978 50.8667 69.8264 46.8551 69.8799C47.2142 69.8751 43.6853 69.991 41.7355 69.9992C40.5312 70.0043 39.1268 69.9872 37.8841 69.8956C37.2877 69.8517 36.4819 69.774 35.6567 69.6095Z" fill="#A1BAFF"/>
<path d="M46.2 35.2002C47.7205 35.2002 49.2514 35.2915 50.7632 35.2915" stroke="#5E5E5E" stroke-width="1.44" stroke-linecap="round"/>
<path d="M31.8 35.2002C33.3206 35.2002 34.8515 35.2915 36.3633 35.2915" stroke="#5E5E5E" stroke-width="1.44" stroke-linecap="round"/>
<path d="M37.1346 46.5932C37.6398 47.1287 38.5082 46.9388 39.18 46.9388C39.2879 46.9388 40.2831 46.9597 40.4388 46.9597C40.8932 46.9597 41.3371 46.9477 41.7901 46.9065C43.6302 46.7393 45.0498 45.4345 45.1475 43.5296C45.3356 39.8607 39.7771 41.3013 38.0997 42.6287C36.9765 43.5175 35.9339 45.3209 37.1346 46.5932Z" fill="#F2F2F2" stroke="#5E5E5E" stroke-width="1.44" stroke-linecap="round"/>
<path d="M44.3656 45.3405C44.1476 46.5802 43.8719 47.8265 43.8674 49.0905C43.8666 49.3083 43.8232 49.5906 43.9089 49.7989C44.0206 50.0705 44.3342 50.0235 44.5593 49.9152C45.0002 49.7033 45.278 49.2257 45.4394 48.7833C45.6968 48.0778 45.7089 47.1652 45.5501 46.4364C45.4486 45.9708 45.253 45.4949 44.8887 45.1716C44.8685 45.1537 44.5696 44.9509 44.5648 44.9917C44.5277 45.307 44.4795 45.6125 44.4209 45.9271C44.2575 46.8054 44.3157 47.7143 44.3157 48.6034" stroke="#BDEDFF" stroke-width="1.128" stroke-linecap="round"/>
<path d="M44.7143 45.6143C44.7143 46.5324 44.7232 47.4512 44.7129 48.3693C44.7123 48.4231 44.7585 49.0265 44.6521 49.0501C44.5921 49.0634 44.5844 49.0255 44.5649 48.9768" stroke="#BDEDFF" stroke-width="1.128" stroke-linecap="round"/>
<path d="M44.4197 49.4261C45 49 44.9296 49.0469 45.0979 48.8182C45.214 48.6605 45.3185 48.4952 45.424 48.3304C45.4554 48.2814 45.4774 48.2357 45.5231 48.2051" stroke="#FDFEFF" stroke-width="0.6" stroke-linecap="round"/>
</g>
<defs>
<clipPath id="clip0_388_4489">
<rect width="50.4" height="60" fill="white" transform="translate(15 10)"/>
</clipPath>
</defs>
</svg>
