<svg width="80" height="80" viewBox="0 0 80 80" fill="none" xmlns="http://www.w3.org/2000/svg">
<g clip-path="url(#clip0_388_4357)">
<path fill-rule="evenodd" clip-rule="evenodd" d="M35.6567 69.6095C35.5613 69.5906 35.4536 69.5681 35.3356 69.5414C32.7353 69.4127 28.7693 68.7122 25.261 65.2786C21.4343 61.5333 19.047 57.1272 17.446 52.8922C14.8573 46.0448 13.3539 36.8544 18.0104 28.1084C20.8481 22.7783 25.1527 19.3499 28.6508 16.9327C32.0326 14.596 37.4207 11.0512 43.9106 10.182C46.9207 9.77887 52.2438 9.64387 56.6125 14.2658C59.6195 17.447 61.3435 21.1243 62.4524 24.1802C65.1701 31.6686 65.3268 39.4866 65.051 45.9228C64.8278 51.1299 62.9778 57.8956 59.0195 62.7728C58.9747 62.828 58.9228 62.8926 58.8642 62.9656C58.29 63.681 57.073 65.1976 55.5893 66.46C53.8051 67.978 50.8667 69.8264 46.8551 69.8799C47.2142 69.8751 43.6853 69.991 41.7355 69.9992C40.5312 70.0043 39.1268 69.9872 37.8841 69.8956C37.2877 69.8517 36.4819 69.774 35.6567 69.6095Z" fill="#E1E1E1"/>
<path d="M30.6001 38.8474C32.1975 38.8474 33.5286 38.1537 34.2253 36.7603" stroke="#4D4D4D" stroke-width="1.44" stroke-linecap="round"/>
<path d="M50.4052 38.4071C48.8078 38.4071 47.4767 37.7133 46.78 36.3198" stroke="#4D4D4D" stroke-width="1.44" stroke-linecap="round"/>
<path d="M38.3801 43.3358C39.6 42.9999 40.226 42.4887 40.7292 41.7733C40.8304 41.6295 40.9983 41.198 41.1779 41.1261C41.2868 41.0826 41.3514 41.2693 41.38 41.3335C41.651 41.9433 42.1797 42.2624 42.7816 42.5063C43.1406 42.6518 43.5135 42.7205 43.8953 42.7727C44.0927 42.7997 44.2942 42.8532 44.4942 42.8532" stroke="#4D4D4D" stroke-width="1.44" stroke-linecap="round"/>
<path d="M36.3518 29.2639C36.9442 29.2639 41.6671 29.566 41.3344 28.4849C41.1505 27.887 38.712 25.9992 38.712 27.1813C38.712 28.4579 40.006 29.3636 41.0413 29.9272C41.9509 30.4223 42.9856 30.3745 43.9876 30.3745" stroke="#BFBFBF" stroke-width="0.6" stroke-linecap="round"/>
</g>
<defs>
<clipPath id="clip0_388_4357">
<rect width="50.4" height="60" fill="white" transform="translate(15 10)"/>
</clipPath>
</defs>
</svg>
