<svg width="32" height="32" viewBox="0 0 32 32" fill="none" xmlns="http://www.w3.org/2000/svg">
<path d="M15 17.0002H8.33331C8.04998 17.0002 7.81254 16.9043 7.62098 16.7125C7.4292 16.5207 7.33331 16.2832 7.33331 15.9998C7.33331 15.7163 7.4292 15.4788 7.62098 15.2875C7.81254 15.0959 8.04998 15.0002 8.33331 15.0002H15V8.3335C15 8.05016 15.0959 7.81272 15.2876 7.62116C15.4794 7.42939 15.717 7.3335 16.0003 7.3335C16.2839 7.3335 16.5213 7.42939 16.7126 7.62116C16.9042 7.81272 17 8.05016 17 8.3335V15.0002H23.6666C23.95 15.0002 24.1874 15.0961 24.379 15.2878C24.5708 15.4796 24.6666 15.7172 24.6666 16.0005C24.6666 16.2841 24.5708 16.5215 24.379 16.7128C24.1874 16.9044 23.95 17.0002 23.6666 17.0002H17V23.6668C17 23.9502 16.9041 24.1876 16.7123 24.3792C16.5205 24.5709 16.283 24.6668 15.9996 24.6668C15.7161 24.6668 15.4786 24.5709 15.2873 24.3792C15.0958 24.1876 15 23.9502 15 23.6668V17.0002Z" fill="#141414"/>
</svg>
