<svg width="24" height="25" viewBox="0 0 24 25" fill="none" xmlns="http://www.w3.org/2000/svg">
<path d="M12.0011 15.3672L18.0049 9.36355C18.1196 9.24877 18.2567 9.19209 18.4164 9.19352C18.576 9.19508 18.7132 9.25324 18.8278 9.36802C18.9426 9.48267 19 9.61982 19 9.77947C19 9.93912 18.9426 10.0763 18.8278 10.1909L12.8855 16.138C12.7598 16.2636 12.6197 16.3554 12.4651 16.4132C12.3103 16.4711 12.1557 16.5 12.0011 16.5C11.8465 16.5 11.6918 16.4711 11.5371 16.4132C11.3825 16.3554 11.2424 16.2636 11.1167 16.138L5.16986 10.1909C5.05509 10.0763 4.99847 9.93834 5.00003 9.77714C5.00146 9.61606 5.05956 9.4782 5.17434 9.36355C5.28899 9.24877 5.42614 9.19138 5.58579 9.19138C5.74544 9.19138 5.88259 9.24877 5.99724 9.36355L12.0011 15.3672Z" fill="#141414"/>
</svg>
