<svg width="24" height="24" viewBox="0 0 24 24" fill="none" xmlns="http://www.w3.org/2000/svg">
<path d="M9.4986 15.6969L18.946 6.24945C19.1086 6.08668 19.2989 6.00357 19.5169 6.0001C19.7349 5.99664 19.9287 6.07976 20.0984 6.24945C20.2681 6.41915 20.353 6.614 20.353 6.83401C20.353 7.05419 20.2681 7.24913 20.0984 7.41883L10.1906 17.3436C9.99283 17.5412 9.76217 17.64 9.4986 17.64C9.23503 17.64 9.00436 17.5412 8.8066 17.3436L4.24064 12.7777C4.07806 12.6149 3.99786 12.4217 4.00004 12.198C4.00205 11.9746 4.0879 11.778 4.2576 11.6083C4.42729 11.4386 4.62214 11.3537 4.84215 11.3537C5.06233 11.3537 5.25728 11.4386 5.42697 11.6083L9.4986 15.6969Z" fill="#878D96"/>
</svg>
