<svg width="20" height="20" viewBox="0 0 20 20" fill="none" xmlns="http://www.w3.org/2000/svg">
<path d="M10.0002 10.878L12.561 13.4391C12.6764 13.5544 12.8215 13.6134 12.9962 13.6162C13.1708 13.6188 13.3185 13.5598 13.4393 13.4391C13.56 13.3183 13.6204 13.1719 13.6204 12.9999C13.6204 12.828 13.56 12.6816 13.4393 12.5608L10.8783 9.99992L13.4393 7.43909C13.5546 7.32367 13.6136 7.1786 13.6164 7.00388C13.6191 6.82929 13.56 6.68158 13.4393 6.56075C13.3185 6.44006 13.1721 6.37971 13.0002 6.37971C12.8282 6.37971 12.6818 6.44006 12.561 6.56075L10.0002 9.12179L7.43933 6.56075C7.32391 6.44547 7.17884 6.38645 7.00412 6.38367C6.82954 6.38103 6.68183 6.44006 6.561 6.56075C6.4403 6.68158 6.37995 6.82797 6.37995 6.99992C6.37995 7.17186 6.4403 7.31825 6.561 7.43909L9.12204 9.99992L6.561 12.5608C6.44572 12.6762 6.38669 12.8212 6.38391 12.996C6.38127 13.1705 6.4403 13.3183 6.561 13.4391C6.68183 13.5598 6.82822 13.6201 7.00016 13.6201C7.17211 13.6201 7.3185 13.5598 7.43933 13.4391L10.0002 10.878ZM10.0016 17.9166C8.90662 17.9166 7.87738 17.7088 6.91391 17.2933C5.95044 16.8777 5.11238 16.3137 4.39975 15.6014C3.68711 14.889 3.12287 14.0513 2.70704 13.0883C2.29134 12.1252 2.0835 11.0962 2.0835 10.0014C2.0835 8.90638 2.29127 7.87714 2.70683 6.91367C3.12238 5.9502 3.68634 5.11214 4.3987 4.3995C5.11107 3.68686 5.94877 3.12263 6.91183 2.70679C7.87488 2.2911 8.90384 2.08325 9.9987 2.08325C11.0937 2.08325 12.1229 2.29103 13.0864 2.70658C14.0499 3.12214 14.8879 3.6861 15.6006 4.39846C16.3132 5.11082 16.8775 5.94853 17.2933 6.91159C17.709 7.87464 17.9168 8.9036 17.9168 9.99846C17.9168 11.0935 17.7091 12.1227 17.2935 13.0862C16.8779 14.0496 16.314 14.8877 15.6016 15.6003C14.8893 16.313 14.0516 16.8772 13.0885 17.293C12.1254 17.7087 11.0965 17.9166 10.0016 17.9166Z" fill="#737982"/>
</svg>
