<svg width="20" height="20" viewBox="0 0 20 20" fill="none" xmlns="http://www.w3.org/2000/svg">
<path d="M12.3973 7.18582C12.7359 7.52457 12.9977 7.93617 13.1825 8.42062C13.3674 8.9052 13.4373 9.39159 13.3923 9.87978C13.3923 10.0401 13.3347 10.1758 13.2194 10.2869C13.104 10.398 12.9661 10.4535 12.8059 10.4535C12.6456 10.4535 12.5099 10.398 12.3988 10.2869C12.2877 10.1758 12.2321 10.0401 12.2321 9.87978C12.2856 9.51339 12.2554 9.16617 12.1417 8.83811C12.0279 8.5102 11.853 8.22818 11.6169 7.99207C11.3808 7.75596 11.0961 7.57673 10.7627 7.45436C10.4294 7.332 10.0779 7.3002 9.70815 7.35895C9.54787 7.36436 9.40954 7.31068 9.29315 7.19791C9.17662 7.08527 9.11572 6.94881 9.11044 6.78853C9.10503 6.62825 9.15655 6.48985 9.26503 6.37332C9.3735 6.25693 9.50787 6.1961 9.66815 6.19082C10.1532 6.13527 10.6406 6.19853 11.1304 6.38062C11.6203 6.56284 12.0426 6.83124 12.3973 7.18582ZM9.99982 4.99999C9.70385 4.99999 9.4135 5.01443 9.12878 5.04332C8.84405 5.07207 8.56065 5.11957 8.27857 5.18582C8.10121 5.22221 7.94148 5.19687 7.7994 5.10978C7.65732 5.0227 7.55961 4.89742 7.50628 4.73395C7.4528 4.5652 7.47044 4.40471 7.55919 4.25249C7.6478 4.10027 7.77648 4.00596 7.94523 3.96957C8.28079 3.88943 8.61975 3.83284 8.96211 3.79978C9.30461 3.76659 9.65051 3.74999 9.99982 3.74999C11.7904 3.74999 13.4352 4.21527 14.9342 5.14582C16.4331 6.07638 17.5858 7.33548 18.3923 8.92311C18.4479 9.02881 18.4882 9.13534 18.5134 9.2427C18.5385 9.35006 18.5511 9.4636 18.5511 9.58332C18.5511 9.70305 18.5407 9.81659 18.5198 9.92395C18.499 10.0313 18.4608 10.1378 18.4052 10.2435C18.15 10.7777 17.8396 11.2758 17.4742 11.7379C17.1088 12.2 16.7065 12.6244 16.2673 13.0112C16.1382 13.1267 15.9905 13.1744 15.8244 13.1546C15.6582 13.1349 15.5216 13.0518 15.4148 12.9054C15.308 12.759 15.2637 12.602 15.2819 12.4344C15.3001 12.2666 15.3738 12.125 15.5029 12.0096C15.8791 11.6687 16.222 11.2962 16.5319 10.8919C16.8418 10.4874 17.1088 10.0512 17.3332 9.58332C16.6387 8.18055 15.6352 7.06596 14.3227 6.23957C13.0102 5.41318 11.5693 4.99999 9.99982 4.99999ZM9.99982 15.4167C8.24551 15.4167 6.6376 14.9479 5.17607 14.0104C3.71454 13.0729 2.55273 11.8381 1.69065 10.306C1.62121 10.2003 1.57044 10.0855 1.53836 9.96145C1.50628 9.83756 1.49023 9.71152 1.49023 9.58332C1.49023 9.45513 1.50412 9.33117 1.5319 9.21145C1.55968 9.09187 1.60829 8.97492 1.67773 8.86061C1.9876 8.29436 2.33857 7.75506 2.73065 7.2427C3.12273 6.73048 3.57357 6.27138 4.08315 5.86541L2.20169 3.97103C2.08641 3.84714 2.02954 3.69999 2.03107 3.52957C2.03273 3.35916 2.09391 3.2136 2.21461 3.09291C2.3353 2.97221 2.48169 2.91187 2.65378 2.91187C2.82572 2.91187 2.97204 2.97221 3.09273 3.09291L16.9069 16.9071C17.0223 17.0225 17.0835 17.1653 17.0904 17.3356C17.0974 17.506 17.0362 17.6559 16.9069 17.7852C16.7862 17.9059 16.6398 17.9662 16.4677 17.9662C16.2958 17.9662 16.1495 17.9059 16.0288 17.7852L13.0961 14.8781C12.6045 15.0683 12.0994 15.2055 11.5807 15.29C11.062 15.3744 10.5351 15.4167 9.99982 15.4167ZM4.96148 6.74353C4.47315 7.12075 4.03426 7.54728 3.64482 8.02311C3.25537 8.49909 2.92926 9.01916 2.66648 9.58332C3.36093 10.9861 4.3644 12.1007 5.6769 12.9271C6.9894 13.7535 8.43037 14.1667 9.99982 14.1667C10.3577 14.1667 10.71 14.1426 11.0567 14.0946C11.4034 14.0465 11.7477 13.9723 12.0896 13.8719L11.035 12.7917C10.8663 12.8654 10.6977 12.9153 10.5294 12.9414C10.3612 12.9677 10.1847 12.9808 9.99982 12.9808C9.05426 12.9808 8.25162 12.651 7.5919 11.9912C6.93218 11.3315 6.60232 10.5289 6.60232 9.58332C6.60232 9.39846 6.61676 9.22193 6.64565 9.05374C6.67454 8.88541 6.72315 8.71687 6.79148 8.54811L4.96148 6.74353Z" fill="#737982"/>
</svg>
