<svg width="24" height="24" viewBox="0 0 24 24" fill="none" xmlns="http://www.w3.org/2000/svg">
<path d="M9.1328 12.0011L15.1365 18.0049C15.2512 18.1196 15.3079 18.2567 15.3065 18.4164C15.3049 18.576 15.2468 18.7132 15.132 18.8278C15.0173 18.9426 14.8802 19 14.7205 19C14.5609 19 14.4237 18.9426 14.3091 18.8278L8.36204 12.8855C8.23636 12.7598 8.14461 12.6197 8.08676 12.4651C8.02892 12.3103 8 12.1557 8 12.0011C8 11.8465 8.02892 11.6918 8.08676 11.5371C8.14461 11.3825 8.23636 11.2424 8.36204 11.1167L14.3091 5.16986C14.4237 5.05509 14.5617 4.99847 14.7229 5.00003C14.8839 5.00146 15.0218 5.05956 15.1365 5.17434C15.2512 5.28899 15.3086 5.42614 15.3086 5.58579C15.3086 5.74544 15.2512 5.88259 15.1365 5.99724L9.1328 12.0011Z" fill="#141414"/>
</svg>
