<svg width="20" height="20" viewBox="0 0 20 20" fill="none" xmlns="http://www.w3.org/2000/svg">
<path d="M12.2937 10.0009L7.14769 15.1471C7.04931 15.2454 7.00073 15.3629 7.00195 15.4998C7.00329 15.6366 7.05314 15.7542 7.15152 15.8524C7.24979 15.9508 7.36735 16 7.5042 16C7.64104 16 7.7586 15.9508 7.85687 15.8524L12.9543 10.759C13.0621 10.6512 13.1407 10.5311 13.1903 10.3986C13.2399 10.266 13.2646 10.1334 13.2646 10.0009C13.2646 9.86842 13.2399 9.73586 13.1903 9.60324C13.1407 9.47073 13.0621 9.35062 12.9543 9.2429L7.85687 4.1456C7.7586 4.04722 7.64037 3.99869 7.50219 4.00003C7.36413 4.00125 7.24596 4.05105 7.14769 4.14943C7.04931 4.2477 7.00012 4.36526 7.00012 4.5021C7.00012 4.63895 7.04931 4.7565 7.14769 4.85477L12.2937 10.0009Z" fill="#737982"/>
</svg>
