<svg width="24" height="24" viewBox="0 0 24 24" fill="none" xmlns="http://www.w3.org/2000/svg">
<path d="M12.0011 9.1328L18.0049 15.1365C18.1196 15.2512 18.2567 15.3079 18.4164 15.3065C18.576 15.3049 18.7132 15.2468 18.8278 15.132C18.9426 15.0173 19 14.8802 19 14.7205C19 14.5609 18.9426 14.4237 18.8278 14.3091L12.8855 8.36204C12.7598 8.23636 12.6197 8.14461 12.4651 8.08676C12.3103 8.02892 12.1557 8 12.0011 8C11.8465 8 11.6918 8.02892 11.5371 8.08676C11.3825 8.14461 11.2424 8.23636 11.1167 8.36204L5.16986 14.3091C5.05509 14.4237 4.99847 14.5617 5.00003 14.7229C5.00146 14.8839 5.05956 15.0218 5.17434 15.1365C5.28899 15.2512 5.42614 15.3086 5.58579 15.3086C5.74544 15.3086 5.88259 15.2512 5.99724 15.1365L12.0011 9.1328Z" fill="#141414"/>
</svg>
