<svg width="28" height="28" viewBox="0 0 28 28" fill="none" xmlns="http://www.w3.org/2000/svg">
<path d="M14.1573 23.9163C13.909 23.9163 13.701 23.8325 13.5334 23.6649C13.366 23.4975 13.2823 23.2896 13.2823 23.0413C13.2823 22.793 13.366 22.5852 13.5334 22.4178C13.701 22.2501 13.909 22.1663 14.1573 22.1663H21.8077C21.9049 22.1663 21.9891 22.1364 22.0603 22.0765C22.1313 22.0168 22.1667 21.9384 22.1667 21.8411V13.6812C22.1667 11.4509 21.3687 9.57334 19.7727 8.04851C18.1769 6.52368 16.2527 5.76126 14.0001 5.76126C11.7474 5.76126 9.82322 6.52368 8.22741 8.04851C6.63141 9.57334 5.83341 11.4509 5.83341 13.6812V19.6758C5.83341 19.9241 5.74961 20.1321 5.582 20.2997C5.41458 20.4671 5.20672 20.5508 4.95841 20.5508C4.399 20.5508 3.91891 20.3561 3.51816 19.9666C3.11722 19.5769 2.91675 19.1024 2.91675 18.543V16.277C2.91675 15.8986 3.02447 15.5519 3.23991 15.2369C3.45536 14.9221 3.73653 14.6691 4.08341 14.4777L4.13737 12.9879C4.22565 11.718 4.54979 10.5416 5.10979 9.45872C5.66998 8.37586 6.39322 7.43319 7.2795 6.63072C8.16558 5.82824 9.18603 5.20301 10.3408 4.75501C11.4954 4.30701 12.7152 4.08301 14.0001 4.08301C15.285 4.08301 16.5017 4.30701 17.6503 4.75501C18.7991 5.20301 19.8177 5.82523 20.7061 6.62167C21.5945 7.41812 22.3158 8.35777 22.87 9.44063C23.4241 10.5237 23.7551 11.7001 23.8628 12.9698L23.9167 14.4305C24.2562 14.5905 24.5356 14.8194 24.7547 15.1171C24.9738 15.4147 25.0834 15.7468 25.0834 16.1131V18.718C25.0834 19.0843 24.9738 19.4163 24.7547 19.714C24.5356 20.0117 24.2562 20.2406 23.9167 20.4006V21.8411C23.9167 22.4153 23.7107 22.9047 23.2987 23.3094C22.8865 23.714 22.3895 23.9163 21.8077 23.9163H14.1573ZM10.7244 16.0638C10.4387 16.0638 10.1953 15.967 9.99404 15.7733C9.79298 15.5796 9.69246 15.3399 9.69246 15.0541C9.69246 14.7684 9.79298 14.5269 9.99404 14.3296C10.1953 14.132 10.4387 14.0332 10.7244 14.0332C11.0102 14.0332 11.2536 14.132 11.4547 14.3296C11.656 14.5269 11.7566 14.7684 11.7566 15.0541C11.7566 15.3399 11.656 15.5796 11.4547 15.7733C11.2536 15.967 11.0102 16.0638 10.7244 16.0638ZM17.2758 16.0638C16.99 16.0638 16.7465 15.967 16.5455 15.7733C16.3442 15.5796 16.2436 15.3399 16.2436 15.0541C16.2436 14.7684 16.3442 14.5269 16.5455 14.3296C16.7465 14.132 16.99 14.0332 17.2758 14.0332C17.5614 14.0332 17.8049 14.132 18.0061 14.3296C18.2072 14.5269 18.3077 14.7684 18.3077 15.0541C18.3077 15.3399 18.2072 15.5796 18.0061 15.7733C17.8049 15.967 17.5614 16.0638 17.2758 16.0638ZM7.43321 14.233C7.31207 12.329 7.90434 10.6998 9.21004 9.34526C10.5157 7.99095 12.1319 7.3138 14.0584 7.3138C15.6768 7.3138 17.1048 7.8145 18.3424 8.81588C19.5802 9.81727 20.3315 11.1136 20.5961 12.705C18.9389 12.6855 17.4076 12.2504 16.0024 11.3995C14.5971 10.5484 13.5183 9.38172 12.766 7.89947C12.4699 9.35022 11.8492 10.6328 10.904 11.7471C9.95865 12.8615 8.80171 13.6901 7.43321 14.233Z" fill="#5F656D"/>
</svg>
