<svg width="28" height="28" viewBox="0 0 28 28" fill="none" xmlns="http://www.w3.org/2000/svg">
<path d="M5.25 22.1665V11.8459C5.25 11.512 5.32467 11.1958 5.474 10.8971C5.62353 10.5982 5.83003 10.3522 6.0935 10.1589L12.7347 5.15564C13.1032 4.87447 13.5244 4.73389 13.9983 4.73389C14.4721 4.73389 14.8944 4.87447 15.2653 5.15564L21.9065 10.1589C22.17 10.3522 22.3765 10.5982 22.526 10.8971C22.6753 11.1958 22.75 11.512 22.75 11.8459V22.1665C22.75 22.6437 22.5776 23.0546 22.2329 23.3994C21.8881 23.7441 21.4772 23.9165 21 23.9165H17.2757C16.9768 23.9165 16.7264 23.8154 16.5244 23.6132C16.3222 23.4111 16.221 23.1607 16.221 22.8618V17.1633C16.221 16.8646 16.12 16.6141 15.918 16.4119C15.716 16.2099 15.4655 16.1089 15.1667 16.1089H12.8333C12.5345 16.1089 12.284 16.2099 12.082 16.4119C11.88 16.6141 11.779 16.8646 11.779 17.1633V22.8618C11.779 23.1607 11.6778 23.4111 11.4756 23.6132C11.2736 23.8154 11.0232 23.9165 10.7243 23.9165H7C6.52283 23.9165 6.11187 23.7441 5.76712 23.3994C5.42237 23.0546 5.25 22.6437 5.25 22.1665Z" fill="#5F656D"/>
</svg>
