<svg width="28" height="28" viewBox="0 0 28 28" fill="none" xmlns="http://www.w3.org/2000/svg">
<path d="M16.0416 17.2311C16.3272 17.2311 16.5766 17.1246 16.7897 16.9115C17.0028 16.6983 17.1094 16.4489 17.1094 16.163C17.1094 15.8774 17.0028 15.628 16.7897 15.4149C16.5766 15.2018 16.3272 15.0952 16.0416 15.0952C15.7559 15.0952 15.5066 15.2018 15.2935 15.4149C15.0802 15.628 14.9735 15.8774 14.9735 16.163C14.9735 16.4489 15.0802 16.6983 15.2935 16.9115C15.5066 17.1246 15.7559 17.2311 16.0416 17.2311ZM16.0416 13.7221C16.2181 13.7221 16.3782 13.6593 16.5217 13.5337C16.6652 13.408 16.7527 13.2488 16.7842 13.0559C16.8231 12.785 16.9094 12.5487 17.0432 12.3469C17.1771 12.1448 17.4281 11.8674 17.796 11.5145C18.3344 10.9984 18.7008 10.5624 18.8953 10.2063C19.0897 9.85049 19.1869 9.43701 19.1869 8.96587C19.1869 8.13559 18.8938 7.45085 18.3075 6.91166C17.7213 6.37247 16.966 6.10287 16.0416 6.10287C15.4448 6.10287 14.8989 6.24122 14.4039 6.51791C13.9086 6.7946 13.5129 7.1902 13.2168 7.7047C13.1227 7.86181 13.113 8.0268 13.1876 8.19966C13.2625 8.37233 13.3904 8.49609 13.5715 8.57095C13.7404 8.64562 13.9102 8.6534 14.0807 8.59429C14.2512 8.53537 14.3896 8.42735 14.4958 8.27024C14.6857 7.98752 14.9086 7.77548 15.1643 7.63412C15.4201 7.49276 15.7126 7.42208 16.0416 7.42208C16.5532 7.42208 16.9735 7.57015 17.3025 7.86628C17.6315 8.16242 17.796 8.55287 17.796 9.03762C17.796 9.3322 17.7126 9.60851 17.546 9.86654C17.3792 10.1246 17.0901 10.442 16.6789 10.8188C16.1747 11.2526 15.8411 11.6101 15.6782 11.8913C15.515 12.1725 15.414 12.5509 15.3751 13.0267C15.3557 13.2076 15.4118 13.3687 15.5434 13.51C15.6751 13.6514 15.8411 13.7221 16.0416 13.7221ZM9.40063 20.417C8.81127 20.417 8.31242 20.2128 7.90409 19.8045C7.49575 19.3962 7.29159 18.8973 7.29159 18.308V5.02603C7.29159 4.43667 7.49575 3.93783 7.90409 3.52949C8.31242 3.12116 8.81127 2.91699 9.40063 2.91699H22.6825C23.2719 2.91699 23.7708 3.12116 24.1791 3.52949C24.5874 3.93783 24.7916 4.43667 24.7916 5.02603V18.308C24.7916 18.8973 24.5874 19.3962 24.1791 19.8045C23.7708 20.2128 23.2719 20.417 22.6825 20.417H9.40063ZM5.31729 24.5003C4.72793 24.5003 4.22909 24.2962 3.82075 23.8878C3.41242 23.4795 3.20825 22.9806 3.20825 22.3913V8.23437C3.20825 7.98606 3.29206 7.7781 3.45967 7.61049C3.62709 7.44308 3.83495 7.35937 4.08325 7.35937C4.33156 7.35937 4.53952 7.44308 4.70713 7.61049C4.87454 7.7781 4.95825 7.98606 4.95825 8.23437V22.3913C4.95825 22.4811 4.99568 22.5634 5.07054 22.638C5.14521 22.7129 5.22746 22.7503 5.31729 22.7503H19.4742C19.7225 22.7503 19.9305 22.834 20.0981 23.0015C20.2655 23.1691 20.3492 23.377 20.3492 23.6253C20.3492 23.8736 20.2655 24.0815 20.0981 24.2489C19.9305 24.4165 19.7225 24.5003 19.4742 24.5003H5.31729Z" fill="#5F656D"/>
</svg>
