<svg width="28" height="28" viewBox="0 0 28 28" fill="none" xmlns="http://www.w3.org/2000/svg">
<path d="M14 13.6408C12.8738 13.6408 11.9117 13.2418 11.1137 12.4438C10.3157 11.646 9.91667 10.6839 9.91667 9.55745C9.91667 8.43123 10.3157 7.46912 11.1137 6.67112C11.9117 5.87312 12.8738 5.47412 14 5.47412C15.1262 5.47412 16.0883 5.87312 16.8863 6.67112C17.6843 7.46912 18.0833 8.43123 18.0833 9.55745C18.0833 10.6839 17.6843 11.646 16.8863 12.4438C16.0883 13.2418 15.1262 13.6408 14 13.6408ZM5.25 20.7531V19.9317C5.25 19.3605 5.40517 18.8314 5.7155 18.3445C6.02583 17.8576 6.44058 17.4833 6.95975 17.2216C8.11281 16.6563 9.27607 16.2323 10.4495 15.9496C11.623 15.6669 12.8065 15.5255 14 15.5255C15.1935 15.5255 16.377 15.6669 17.5505 15.9496C18.7239 16.2323 19.8872 16.6563 21.0402 17.2216C21.5594 17.4833 21.9742 17.8576 22.2845 18.3445C22.5948 18.8314 22.75 19.3605 22.75 19.9317V20.7531C22.75 21.245 22.5776 21.6635 22.2329 22.0084C21.8881 22.3532 21.4697 22.5255 20.9775 22.5255H7.02246C6.53032 22.5255 6.11187 22.3532 5.76712 22.0084C5.42237 21.6635 5.25 21.245 5.25 20.7531Z" fill="#5F656D"/>
</svg>
