<svg width="28" height="28" viewBox="0 0 28 28" fill="none" xmlns="http://www.w3.org/2000/svg">
<path d="M5.13792 10.8589C4.83906 10.8589 4.58861 10.7578 4.38659 10.5556C4.18436 10.3535 4.08325 10.1032 4.08325 9.80451V7.53826C4.08325 7.2396 4.18436 6.98915 4.38659 6.78693C4.58861 6.5849 4.83906 6.48389 5.13792 6.48389H7.40388C7.70254 6.48389 7.95299 6.5849 8.15521 6.78693C8.35724 6.98915 8.45825 7.2396 8.45825 7.53826V9.80451C8.45825 10.1032 8.35724 10.3535 8.15521 10.5556C7.95299 10.7578 7.70254 10.8589 7.40388 10.8589H5.13792ZM10.4325 10.8589C10.1339 10.8589 9.88343 10.7578 9.68121 10.5556C9.47918 10.3535 9.37817 10.1032 9.37817 9.80451V7.53826C9.37817 7.2396 9.47918 6.98915 9.68121 6.78693C9.88343 6.5849 10.1339 6.48389 10.4325 6.48389H22.8619C23.1608 6.48389 23.4112 6.5849 23.6133 6.78693C23.8155 6.98915 23.9166 7.2396 23.9166 7.53826V9.80451C23.9166 10.1032 23.8155 10.3535 23.6133 10.5556C23.4112 10.7578 23.1608 10.8589 22.8619 10.8589H10.4325ZM10.4325 16.064C10.1339 16.064 9.88343 15.9629 9.68121 15.7606C9.47918 15.5586 9.37817 15.3082 9.37817 15.0093V12.8332C9.37817 12.5343 9.47918 12.2839 9.68121 12.0818C9.88343 11.8798 10.1339 11.7788 10.4325 11.7788H22.8619C23.1608 11.7788 23.4112 11.8798 23.6133 12.0818C23.8155 12.2839 23.9166 12.5343 23.9166 12.8332V15.0093C23.9166 15.3082 23.8155 15.5586 23.6133 15.7606C23.4112 15.9629 23.1608 16.064 22.8619 16.064H10.4325ZM10.4325 21.3589C10.1339 21.3589 9.88343 21.2578 9.68121 21.0556C9.47918 20.8535 9.37817 20.6031 9.37817 20.3042V18.0383C9.37817 17.7394 9.47918 17.489 9.68121 17.2869C9.88343 17.0849 10.1339 16.9839 10.4325 16.9839H22.8619C23.1608 16.9839 23.4112 17.0849 23.6133 17.2869C23.8155 17.489 23.9166 17.7394 23.9166 18.0383V20.3042C23.9166 20.6031 23.8155 20.8535 23.6133 21.0556C23.4112 21.2578 23.1608 21.3589 22.8619 21.3589H10.4325ZM5.13792 21.3589C4.83906 21.3589 4.58861 21.2578 4.38659 21.0556C4.18436 20.8535 4.08325 20.6031 4.08325 20.3042V18.0383C4.08325 17.7394 4.18436 17.489 4.38659 17.2869C4.58861 17.0849 4.83906 16.9839 5.13792 16.9839H7.40388C7.70254 16.9839 7.95299 17.0849 8.15521 17.2869C8.35724 17.489 8.45825 17.7394 8.45825 18.0383V20.3042C8.45825 20.6031 8.35724 20.8535 8.15521 21.0556C7.95299 21.2578 7.70254 21.3589 7.40388 21.3589H5.13792ZM5.13792 16.064C4.83906 16.064 4.58861 15.9629 4.38659 15.7606C4.18436 15.5586 4.08325 15.3082 4.08325 15.0093V12.8332C4.08325 12.5343 4.18436 12.2839 4.38659 12.0818C4.58861 11.8798 4.83906 11.7788 5.13792 11.7788H7.40388C7.70254 11.7788 7.95299 11.8798 8.15521 12.0818C8.35724 12.2839 8.45825 12.5343 8.45825 12.8332V15.0093C8.45825 15.3082 8.35724 15.5586 8.15521 15.7606C7.95299 15.9629 7.70254 16.064 7.40388 16.064H5.13792Z" fill="#5F656D"/>
</svg>
